<svg xmlns="http://www.w3.org/2000/svg" width="170.915" height="26.951" viewBox="0 0 170.915 26.951"><defs><style>.a,.b{fill:#b50046;}.b,.c{fill-rule:evenodd;}.c,.d{fill:#0059a9;}</style></defs><g transform="translate(-15.56 -71.037)"><path class="a" d="M36.7,85.005a8.38,8.38,0,0,0-5.68-2.068h-7.41a5.794,5.794,0,0,1-3.932-1.421,4.406,4.406,0,0,1,0-6.825,5.8,5.8,0,0,1,3.932-1.421H37.953V71.037H23.608A8.362,8.362,0,0,0,17.929,73.1a6.47,6.47,0,0,0,0,10.009,8.357,8.357,0,0,0,5.679,2.063h7.41A5.78,5.78,0,0,1,34.951,86.6a4.407,4.407,0,0,1,0,6.82,5.791,5.791,0,0,1-3.933,1.423H15.56v2.238H31.019a8.376,8.376,0,0,0,5.68-2.067,6.465,6.465,0,0,0,0-10.005" transform="translate(0 0)"/><path class="a" d="M70.81,94.818c-2.016,0-4.874-.653-6.377-2.09a6.752,6.752,0,0,1-2.192-5.05V78.216H72.914v-2.2H62.241V71.083H59.953V87.678a8.807,8.807,0,0,0,2.87,6.6c1.979,1.889,5.438,2.737,7.987,2.737h4.3l-2.3-2.2Z" transform="translate(-18.429 -0.019)"/><path class="b" d="M105.685,90.2a8.162,8.162,0,1,1-2.389-5.793,7.93,7.93,0,0,1,2.389,5.793M97.516,79.55a10.649,10.649,0,1,0,7.515,3.123,10.262,10.262,0,0,0-7.515-3.123" transform="translate(-29.628 -3.792)"/><path class="b" d="M150.981,89.072a7.9,7.9,0,0,1,2.4-4.73,8.607,8.607,0,0,1,11.985,0,7.923,7.923,0,0,1,2.4,4.73Zm8.392-9.44a10.558,10.558,0,0,0-7.631,3.1,10.43,10.43,0,0,0,0,14.964,10.943,10.943,0,0,0,15.271-.012,10.143,10.143,0,0,0,2.676-4.3l.038-.121H167.27l-.02.06a7.228,7.228,0,0,1-.5,1.006,8.626,8.626,0,0,1-1.382,1.752,8.62,8.62,0,0,1-11.985,0,7.9,7.9,0,0,1-2.4-4.73h19.135l.008-.085c.028-.349.045-.7.045-1.054A10.151,10.151,0,0,0,167,82.73a10.568,10.568,0,0,0-7.632-3.1" transform="translate(-55.256 -3.826)"/><path class="c" d="M273.394,89.072a7.91,7.91,0,0,1,2.4-4.73,8.608,8.608,0,0,1,11.986,0,7.925,7.925,0,0,1,2.4,4.73Zm8.392-9.44a10.56,10.56,0,0,0-7.631,3.1,10.432,10.432,0,0,0,0,14.964,10.943,10.943,0,0,0,15.271-.012,10.131,10.131,0,0,0,2.676-4.3l.038-.121h-2.457l-.02.06a7.367,7.367,0,0,1-.5,1.006,8.606,8.606,0,0,1-1.382,1.752,8.622,8.622,0,0,1-11.986,0,7.914,7.914,0,0,1-2.4-4.73h19.135l.008-.085c.027-.349.044-.7.044-1.054a10.149,10.149,0,0,0-3.163-7.484,10.566,10.566,0,0,0-7.632-3.1" transform="translate(-106.106 -3.826)"/><path class="d" d="M197.216,95.014,186.381,71.069h-2.569l11.761,25.937a1.854,1.854,0,0,0,3.286,0l11.756-25.937h-2.569Z" transform="translate(-69.931 -0.013)"/><path class="d" d="M248.91,81.61v8.83a7.611,7.611,0,0,1-2.433,5.672,8.552,8.552,0,0,1-11.764,0,7.625,7.625,0,0,1-2.429-5.672V79.526H230V90.44a9.72,9.72,0,0,0,3.11,7.235,10.856,10.856,0,0,0,14.982,0,9.731,9.731,0,0,0,3.106-7.235V79.4Z" transform="translate(-89.347 -3.731)"/><path class="a" d="M141.592,81.619a13.423,13.423,0,0,1,1.877-1.823l.417-.334h-4.277a9.643,9.643,0,0,0-6.917,2.766,9,9,0,0,0-2.87,6.686v11.931h2.292V88.914A6.864,6.864,0,0,1,134.3,83.8a7.376,7.376,0,0,1,5.307-2.116h1.929Z" transform="translate(-47.428 -3.756)"/></g></svg>