<svg xmlns="http://www.w3.org/2000/svg" width="24" height="24" viewBox="0 0 24 24"><defs><style>.a{fill:#fff;}</style></defs><g transform="translate(-225.699 -495.945)"><g transform="translate(233.179 499.217)"><path class="a" d="M249.851,504.224l-.916-.922-3.859,3.858h-1.968v-1.968l3.858-3.859-.922-.916-2.936,2.936v-3.8h-1.3v3.8l-2.936-2.936-.922.916,3.859,3.859v1.968h-1.969l-3.858-3.858-.917.922L238,507.161h-3.8v1.3H238l-2.937,2.936.917.922,3.858-3.858h1.969v1.968l-3.859,3.859.922.916,2.936-2.936v3.8h1.3v-3.8l2.936,2.936.922-.916-3.858-3.859V508.46h1.968l3.859,3.858.916-.922-2.936-2.936h3.8v-1.3h-3.8Z" transform="translate(-234.198 -499.55)"/></g><path class="a" d="M230.943,496.923a1.928,1.928,0,0,1,1.927,1.926v12.02l.436.291a4.265,4.265,0,1,1-4.725,0l.436-.291v-12.02a1.928,1.928,0,0,1,1.926-1.926m0-.979a2.912,2.912,0,0,0-2.905,2.9v11.5a5.244,5.244,0,1,0,5.812,0v-11.5a2.913,2.913,0,0,0-2.906-2.9Z" transform="translate(0 0)"/><circle class="a" cx="2.783" cy="2.783" r="2.783" transform="translate(228.16 511.96)"/></g></svg>