<svg xmlns="http://www.w3.org/2000/svg" width="24" height="24" viewBox="0 0 24 24"><defs><style>.a{fill:#fff;}</style></defs><g transform="translate(-222.17 -535.461)"><path class="a" d="M233.064,548.5l9.76-11.652a.167.167,0,0,0-.224-.243l-12.322,8.8a2.1,2.1,0,1,0,2.786,3.092Zm-2.386-.65a1.176,1.176,0,1,1,1.661.067A1.176,1.176,0,0,1,230.679,547.849Z" transform="translate(2.582 0.4)"/><g transform="translate(222.17 535.461)"><path class="a" d="M239.659,546.382a6.579,6.579,0,1,1-4.049-6.061l1.268-.9A7.968,7.968,0,1,0,240.3,543.1l-1.011,1.207A6.494,6.494,0,0,1,239.659,546.382Z" transform="translate(-221.092 -534.383)"/><path class="a" d="M244.81,547.46a10.673,10.673,0,1,1-4.482-8.66l1.164-.831a11.958,11.958,0,1,0,2.682,2.873l-.924,1.1A10.564,10.564,0,0,1,244.81,547.46Z" transform="translate(-222.17 -535.461)"/></g></g></svg>