<svg xmlns="http://www.w3.org/2000/svg" width="24" height="23.345" viewBox="0 0 24 23.345"><defs><style>.a{fill:none;stroke-miterlimit:10;}.b,.d{fill:#fff;}.c,.d{stroke:none;}</style></defs><g transform="translate(-301.935 -561.404)"><g class="a"><path class="c" d="M312.761,582a8.966,8.966,0,0,0,1.175.075,7.192,7.192,0,0,0,1.175-.088l1.974,2.538a.616.616,0,0,0,.763.149l4.15-2.4a.611.611,0,0,0,.276-.738l-1.2-2.988a8.821,8.821,0,0,0,1.175-2.025l3.175-.449a.605.605,0,0,0,.512-.6v-4.8a.59.59,0,0,0-.512-.587l-3.175-.451a9,9,0,0,0-1.175-2.025l1.2-2.988a.6.6,0,0,0-.276-.738l-4.15-2.388a.571.571,0,0,0-.763.151l-1.974,2.537a6.951,6.951,0,0,0-2.35-.024l-1.976-2.539a.613.613,0,0,0-.762-.149l-4.151,2.4a.611.611,0,0,0-.275.738l1.2,2.988a8.817,8.817,0,0,0-1.175,2.025l-3.176.449a.616.616,0,0,0-.512.6v4.8a.583.583,0,0,0,.512.587l3.176.451a8.573,8.573,0,0,0,1.175,2.025l-1.2,2.988a.6.6,0,0,0,.275.736l4.151,2.4a.578.578,0,0,0,.762-.151Z"/><path class="d" d="M 317.6559448242188 583.6316528320313 L 321.2111511230469 581.5758056640625 L 320.1454772949219 578.9234619140625 L 319.9338989257813 578.3969116210938 L 320.2774353027344 577.9452514648438 C 320.7316589355469 577.34814453125 321.0733947753906 576.7605590820313 321.3222045898438 576.1489868164063 L 321.5389099121094 575.6163330078125 L 322.1083068847656 575.5357055664063 L 324.9351806640625 575.1354370117188 L 324.9351806640625 571.0293579101563 L 322.1078796386719 570.6278076171875 L 321.5387878417969 570.5469970703125 L 321.3222045898438 570.0145874023438 C 321.0799865722656 569.4192504882813 320.7279052734375 568.8141479492188 320.2757263183594 568.216064453125 L 319.9346008300781 567.7649536132813 L 320.1454467773438 567.2401733398438 L 321.2108459472656 564.5885009765625 L 317.6571044921875 562.543701171875 L 315.9001770019531 564.8016357421875 L 315.5339965820313 565.2722778320313 L 314.9458312988281 565.173828125 C 314.5563354492188 565.108642578125 314.2165222167969 565.0755615234375 313.935791015625 565.0755615234375 C 313.5658264160156 565.0755615234375 313.2165832519531 565.101318359375 312.92578125 565.1499633789063 L 312.3376770019531 565.2484130859375 L 311.9714965820313 564.77783203125 L 310.2147827148438 562.5205078125 L 306.6602783203125 564.5751953125 L 307.7262268066406 567.2282104492188 L 307.9378356933594 567.7548217773438 L 307.5941467285156 568.20654296875 C 307.1400756835938 568.8033447265625 306.79833984375 569.3908081054688 306.5494384765625 570.0026245117188 L 306.3327026367188 570.5352783203125 L 305.7632751464844 570.6158447265625 L 302.9349975585938 571.01611328125 L 302.9349975585938 575.1221923828125 L 305.7637329101563 575.5238647460938 L 306.3328247070313 575.6046752929688 L 306.5494384765625 576.1370849609375 C 306.8044128417969 576.7637329101563 307.1539916992188 577.3656005859375 307.5885314941406 577.9258422851563 L 307.9401245117188 578.379150390625 L 307.7262268066406 578.9115600585938 L 306.6607055664063 581.5633544921875 L 310.2155456542969 583.6195678710938 L 311.9747009277344 581.3831787109375 L 312.32666015625 580.9356689453125 L 312.89111328125 581.0099487304688 C 313.2291870117188 581.054443359375 313.5709228515625 581.0760498046875 313.935791015625 581.0760498046875 C 314.3113098144531 581.0760498046875 314.6511535644531 581.051025390625 314.9458618164063 581.001708984375 L 315.5341796875 580.9031982421875 L 315.9003601074219 581.3740844726563 L 317.6559448242188 583.6316528320313 M 317.5598449707031 584.7481079101563 C 317.3790588378906 584.7481079101563 317.1985168457031 584.6707153320313 317.0849609375 584.5263671875 L 315.1109619140625 581.9879760742188 C 314.7361450195313 582.0507202148438 314.3359985351563 582.0760498046875 313.935791015625 582.0760498046875 C 313.5237426757813 582.0760498046875 313.135498046875 582.0507202148438 312.7606811523438 582.0014038085938 L 310.78515625 584.512939453125 C 310.6739807128906 584.6640014648438 310.5072326660156 584.744384765625 310.329833984375 584.744384765625 C 310.2284240722656 584.744384765625 310.12353515625 584.7180786132813 310.0236206054688 584.663818359375 L 305.87255859375 582.2626953125 C 305.5977783203125 582.1134033203125 305.497802734375 581.8013305664063 305.5977783203125 581.5265502929688 L 306.79833984375 578.5386962890625 C 306.323486328125 577.9264526367188 305.9232788085938 577.2515869140625 305.6231689453125 576.513916015625 L 302.4472045898438 576.06298828125 C 302.1484985351563 576.0255737304688 301.9349975585938 575.7762451171875 301.9349975585938 575.4761352539063 L 301.9349975585938 570.6754760742188 C 301.9349975585938 570.3753051757813 302.1484985351563 570.137939453125 302.4472045898438 570.0751953125 L 305.6231689453125 569.625732421875 C 305.9232788085938 568.8881225585938 306.323486328125 568.22509765625 306.79833984375 567.6010131835938 L 305.5977783203125 564.613037109375 C 305.5097045898438 564.33837890625 305.5977783203125 564.0262451171875 305.87255859375 563.87548828125 L 310.0236206054688 561.4759521484375 C 310.1123352050781 561.4270629882813 310.212158203125 561.4035034179688 310.3118591308594 561.4035034179688 C 310.4924621582031 561.4035034179688 310.672607421875 561.4808349609375 310.78515625 561.6251831054688 L 312.7606811523438 564.1636962890625 C 313.135498046875 564.1009521484375 313.547607421875 564.0755615234375 313.935791015625 564.0755615234375 C 314.3225708007813 564.0755615234375 314.7361450195313 564.1248168945313 315.1109619140625 564.1875610351563 L 317.0849609375 561.6505737304688 C 317.1953125 561.494384765625 317.3636474609375 561.4160766601563 317.5386352539063 561.4160766601563 C 317.6430358886719 561.4160766601563 317.7498168945313 561.4439697265625 317.8480224609375 561.4998168945313 L 321.9976196289063 563.887451171875 C 322.2738647460938 564.0382690429688 322.3738403320313 564.350341796875 322.2738647460938 564.625 L 321.0733642578125 567.6129760742188 C 321.5361938476563 568.22509765625 321.9483642578125 568.9000854492188 322.2484741210938 569.6377563476563 L 325.4230346679688 570.088623046875 C 325.72314453125 570.137939453125 325.9351806640625 570.3753051757813 325.9351806640625 570.6754760742188 L 325.9351806640625 575.4761352539063 C 325.9351806640625 575.7762451171875 325.72314453125 576.0255737304688 325.4230346679688 576.0763549804688 L 322.2484741210938 576.5258178710938 C 321.9483642578125 577.2634887695313 321.5481567382813 577.9264526367188 321.0733642578125 578.5506591796875 L 322.2738647460938 581.5385131835938 C 322.3604736328125 581.8132934570313 322.2738647460938 582.1253662109375 321.9976196289063 582.2761840820313 L 317.8480224609375 584.6757202148438 C 317.7593383789063 584.7245483398438 317.6595764160156 584.7481079101563 317.5598449707031 584.7481079101563 Z"/></g><circle class="b" cx="4" cy="4" r="4" transform="translate(309.935 569.114)"/></g></svg>