<svg xmlns="http://www.w3.org/2000/svg" width="24" height="24" viewBox="0 0 24 24"><defs><style>.a{fill:#fff;}</style></defs><g transform="translate(-262.791 -535.606)"><path class="a" d="M274.79,536.966a10.64,10.64,0,1,1-10.639,10.641,10.652,10.652,0,0,1,10.639-10.641m0-1.36a12,12,0,1,0,12,12,12,12,0,0,0-12-12Z" transform="translate(0 0)"/><g transform="translate(273.759 541.061)"><path class="a" d="M271.758,538.945h0a1.091,1.091,0,0,1,1.091,1.09v6.545a1.092,1.092,0,0,1-1.091,1.091h0a1.091,1.091,0,0,1-1.09-1.091v-6.545A1.09,1.09,0,0,1,271.758,538.945Z" transform="translate(-270.668 -538.945)"/><circle class="a" cx="1.091" cy="1.091" r="1.091" transform="translate(0 10.909)"/></g></g></svg>